<svg xmlns="http://www.w3.org/2000/svg" viewBox="0 0 64 64" fill="none">
  <defs>
    <linearGradient id="bg" x1="8" y1="6" x2="56" y2="58" gradientUnits="userSpaceOnUse">
      <stop stop-color="#1E3A8A" />
      <stop offset="1" stop-color="#0B1220" />
    </linearGradient>
    <linearGradient id="shine" x1="10" y1="8" x2="54" y2="20" gradientUnits="userSpaceOnUse">
      <stop stop-color="#DBEAFE" />
      <stop offset="1" stop-color="#DBEAFE" stop-opacity="0" />
    </linearGradient>
  </defs>
  <rect x="4" y="4" width="56" height="56" rx="14" fill="url(#bg)" />
  <rect x="4.5" y="4.5" width="55" height="55" rx="13.5" stroke="#93C5FD" stroke-opacity="0.28" />
  <path
    fill="#F8FAFC"
    d="M21 14H37.5C43.8513 14 49 19.1487 49 25.5C49 29.2669 47.1896 32.611 44.3912 34.7066C47.3966 36.7708 49.375 40.2263 49.375 44.1437C49.375 50.6911 44.0661 56 37.5188 56H21V14Z"
  />
  <rect x="30" y="22.25" width="10.5" height="6.5" rx="3.25" fill="#1E3A8A" />
  <rect x="30" y="40.25" width="10.5" height="6.5" rx="3.25" fill="#1E3A8A" />
  <path d="M8 12C22 8 38 6 56 10V4H8V12Z" fill="url(#shine)" opacity="0.35" />
</svg>
